<?xml version="1.0" encoding="utf-8"?>
<!-- Generator: Adobe Illustrator 26.0.3, SVG Export Plug-In . SVG Version: 6.00 Build 0)  -->
<svg version="1.0" id="Layer_1" xmlns="http://www.w3.org/2000/svg" xmlns:xlink="http://www.w3.org/1999/xlink" x="0px" y="0px"
	 viewBox="0 0 939 647.3" style="enable-background:new 0 0 939 647.3;" xml:space="preserve">
<style type="text/css">
	.st0{fill:#CECCCC;}
	.st1{fill:#FFFFFF;}
	.st2{fill:#C3388D;}
	.st3{fill:#F9D9D2;}
	.st4{fill:#101210;}
	.st5{fill:#E5E5E4;}
	.st6{opacity:0.2;fill:#8BCCCF;enable-background:new    ;}
	.st7{fill:#525252;}
	.st8{fill:#010101;}
</style>
<g id="Layer_2">
	<g id="Layer_3">
		<path class="st0" d="M317.3,318.6c0.2-9-6.9-16.5-15.9-16.7c-9-0.2-16.5,6.9-16.7,15.9c0,0.3,0,0.5,0,0.8
			c0.2,6.3,4.3,11.9,10.4,13.9v24.8c-7.1-18.2-20.4-33.3-37.5-42.7c2.5-5.4,5-10.1,7.5-14.4c9.3-13.8,19.6-27,30.8-39.3
			c6.1-7.3,12-14.1,16.7-20.1c13.3-16.6,27.8-41.2,25.1-55.7c-0.7-4.1-3.2-7.7-6.8-9.8c-18.4-10.9-43.5,24.4-68.1,58.5
			c-16.3,22.5-24.7,54.3-28.6,72.2c-7.6-1.7-15.3-2.5-23-2.5c-11.2,0-22.4,1.8-33,5.4c-0.7-19.9-0.1-39.9,1.8-59.8
			c5.4-51.7,3-82-7-92.3c-2.6-3.2-6.5-4.9-10.7-4.8c-29.7,1.5-26.3,90.1-25.8,100.2c1.2,24.2,10.9,53.7,16.7,70
			c-13.7,10.8-23.7,25.7-28.5,42.4h-2.1c-9.3-0.4-17.2,6.7-17.6,16c0,0.1,0,0.1,0,0.2v28.1c0.4,9.3,8.2,16.6,17.6,16.3h3.7
			c4.1,9.6,10.2,18.1,17.9,25.1l-5.4,4.8c-2.6,2.3-3,6.2-0.7,8.9c16.3,19.8,43,31.2,72.9,31.2s56.7-11.3,72.9-31.2
			c2.2-2.7,1.9-6.6-0.7-8.9l-5.4-4.8c7.7-7.1,13.8-15.9,17.9-25.5h4.1c9.3,0.4,17.2-6.8,17.7-16.2v-28c-0.2-6.5-4.3-12.3-10.4-14.5
			v-33.6C313,330.6,317.2,325,317.3,318.6z"/>
		<path class="st1" d="M184.4,454.8c5-3.3-8.2-2.1-9.2-4.3c-5.2-0.5-10.4-1.4-15.5-2.8c-9.2-2.4-31.4-17.3-33.8-31.6s0-41.4,10-57.7
			c6.3-9.9,14.3-18.6,23.8-25.5c0,0-19.4-46.1-21-80.9s1.1-96.8,23.8-97.9s19.4,56.9,15.5,94.7c-2.3,25.1-2.7,50.3-1.1,75.4
			c9.7-3.1,19.7-4.8,29.9-5c8.9-0.2,17.9,0.6,26.6,2.5c0,0,7.2-53.5,31-86.9c23.8-33.5,48.9-67.6,65.2-57.9
			c16.3,9.7-4.5,44.4-18.9,62.5c-14.4,18.1-39.3,45.3-47.6,59.8c-5.4,9.7-10.3,19.6-14.4,29.9c14.8,7.6,26.9,19.6,34.7,34.3
			c11.7,23.4,12.6,52.2,6.3,64.4c-6.4,11.4-17.6,19.4-30.5,21.7c-7.2,0.3-37.6,7.9-37.6,7.9L184.4,454.8z"/>
		<path class="st2" d="M237.6,322.1c0,0,18.1-47.3,34.4-73.9s38-46.7,44.9-42.6s-14,28.9-32.2,53.3c-14.9,21.5-28.3,44-40.4,67.2
			L237.6,322.1z"/>
		<path class="st2" d="M164.8,330.2l5.4-4c0,0-0.8-47.3,0-76.1s2.2-64.6-7.4-64.3s-16.3,28.1-12.6,67.2
			C152.9,279.2,157.8,305,164.8,330.2z"/>
		
			<ellipse transform="matrix(3.332967e-02 -0.9994 0.9994 3.332967e-02 -277.2954 555.5784)" class="st3" cx="148.6" cy="421.1" rx="10.5" ry="10.5"/>
		<circle class="st3" cx="273.1" cy="421.1" r="10.5"/>
		<path class="st4" d="M228.3,420.2c-0.5-0.3-1.1-0.1-1.3,0.3l0,0c0,0-3.1,5.4-7.7,5.8c-3.1-0.1-6.1-1.5-8.2-3.8v-8
			c2.9-1.6,7.7-6.5,7.7-8.2c-0.9-3.7-4.3-6.2-8.1-5.9c-5.4,0-9.2,3.5-9.2,6.5s6,6.7,7.7,7.8v7.9c-1.7,2.2-4.3,3.6-7.1,3.7
			c-4.3,0-7.6-5.9-7.6-5.9c-0.3-0.5-0.9-0.7-1.3-0.4c0,0,0,0,0,0c-0.5,0.3-0.7,0.9-0.4,1.4c0,0,3.9,7,9.4,7c3.2-0.1,6.1-1.6,8.2-4
			c2.2,2.4,5.3,3.8,8.6,4h0.7c4-0.8,7.4-3.3,9.3-6.9C229,421.1,228.8,420.5,228.3,420.2L228.3,420.2z"/>
		<path class="st5" d="M159.6,333c0,0-15-38-17.9-57.9s-5.4-53.1-1.6-75.2c1.6-10.2,3.9-20.3,6.6-30.2c0,0-7,51.5-4.4,74.1
			C144.9,266.4,159.6,333,159.6,333z"/>
		<path class="st5" d="M233.4,321.6c0,0,10.9-57.5,26.7-80.1s35.4-50,45.4-56.9l9.9-7c0,0-39.9,41.8-55.3,76.1
			S233.4,321.6,233.4,321.6z"/>
		<path class="st4" d="M170.2,386.8c-4.6,0-8.3,3.6-8.3,8.2c0,4.6,3.6,8.3,8.2,8.3c4.6,0,8.3-3.6,8.3-8.2c0,0,0,0,0,0v-0.1
			C178.4,390.6,174.7,386.9,170.2,386.8z M172.5,394.5c-1.2,0-2.2-1-2.2-2.2s1-2.2,2.2-2.2s2.2,1,2.2,2.2
			C174.7,393.5,173.7,394.5,172.5,394.5C172.5,394.5,172.5,394.5,172.5,394.5L172.5,394.5z"/>
		<path class="st4" d="M251.2,386.8c-4.6,0-8.3,3.7-8.3,8.3c0,4.6,3.7,8.3,8.3,8.3s8.3-3.7,8.3-8.3c0,0,0,0,0,0
			C259.5,390.5,255.8,386.8,251.2,386.8C251.2,386.8,251.2,386.8,251.2,386.8z M253.6,394.5c-1.1-0.1-2-1.1-1.8-2.3s1.1-2,2.3-1.8
			c1,0.1,1.8,0.9,1.8,1.9C255.8,393.5,254.8,394.5,253.6,394.5L253.6,394.5z"/>
		<ellipse class="st6" cx="212.2" cy="398.2" rx="76.6" ry="55.2"/>
		<path class="st1" d="M304.9,367.5v-36.2c5.9-1.3,10.2-6.4,10.4-12.4c-0.8-7.9-7.9-13.6-15.8-12.8c-6.7,0.7-12.1,6-12.8,12.8
			c0.3,6,4.5,11.1,10.4,12.4v35.4h-1c-10.9-37.7-43-61.1-84.9-61.1s-74.2,23.1-84.9,61.1h-3.6c-8.2-0.4-15.1,5.8-15.6,14v28.1
			c0.5,8.2,7.5,14.4,15.6,14h5c4.2,10.7,10.9,20.1,19.5,27.6l-7.1,6.3c-1.8,1.5-2,4.2-0.5,6l0,0c15.9,19.3,41.9,30.5,71.3,30.5
			s55.5-10.9,71.3-30.4c1.5-1.8,1.3-4.5-0.5-6l0,0l-7.1-6.3c8.6-7.5,15.3-17,19.6-27.6h5.4c8.2,0.4,15.1-5.8,15.6-14v-28.2
			C315.1,374.4,310.9,369.1,304.9,367.5z M211.2,345.5c38.8,0,70.3,25.5,70.3,56.9c0,34-35.4,48.9-70.3,48.9s-70.3-15.2-70.3-48.9
			C140.9,371,172.4,345.5,211.2,345.5z"/>
		<path class="st7" d="M307.5,399.3h-10.4v-5.1c0-6.9-0.7-13.8-2.1-20.6h4.4c4-0.3,7.5,2.8,7.8,6.8c0,0.1,0,0.2,0,0.2L307.5,399.3z"
			/>
		<path class="st7" d="M299.7,415.7h-5.4c1-3.8,1.8-7.7,2.3-11.7h10.9v4.7c-0.2,4-3.5,7.1-7.5,7L299.7,415.7z"/>
		<path class="st7" d="M211.2,486c-26.1,0-49.2-9.4-63.8-26l7.3-6.5c16.7,11.1,36.4,16.8,56.5,16.3c20.1,0.5,39.8-5.2,56.5-16.3
			l7.3,6.5C260.4,476.6,237.2,486,211.2,486z"/>
		<path class="st7" d="M122.7,373.6h4.7c-1.4,6.8-2.1,13.7-2.1,20.6c-0.1,1.7-0.1,3.4,0,5.1h-10.2v-18.8c0-3.8,3-7,6.8-7.1
			C122.2,373.6,122.4,373.6,122.7,373.6z"/>
		<path class="st8" d="M211.2,340.8c-8.8,0-17.6,1.3-26.1,3.8v-28.4c8.5-2.4,17.3-3.6,26.1-3.5c8.8-0.1,17.5,1.1,26,3.5v28.5
			C228.8,342.2,220,340.8,211.2,340.8z"/>
		<path class="st7" d="M180,317.9v28.6c-26.1,9.6-44.3,31.2-44.3,55.9c0,32.1,30.5,53.8,75.5,53.8s75.5-21.7,75.5-53.8
			c0-24.8-18.3-46.3-44.3-55.9v-28.6c30.5,10.9,49.5,39.1,49.5,76.5c0,42.2-32.3,70.6-80.7,70.6s-80.7-28.3-80.7-70.6
			C130.5,357,149.5,328.9,180,317.9z"/>
		<path class="st7" d="M114.8,404.1h10.9c0.5,3.9,1.3,7.8,2.3,11.7h-5.4c-4,0.3-7.5-2.8-7.8-6.8c0,0,0,0,0,0c0-0.1,0-0.1,0-0.2
			L114.8,404.1z"/>
		<ellipse class="st7" cx="301" cy="318.6" rx="6.5" ry="5.9"/>
		<path class="st8" d="M451.2,351.8h-31.6V323c0-4.2-3.4-7.6-7.6-7.6h-0.3c-4.2,0-7.6,3.4-7.6,7.6l0,0v28.8h-9.2
			c-4.1,0-7.4,3.3-7.4,7.3v0.1l0,0c0,4.1,3.3,7.4,7.4,7.4h0h9.2v68.9c-0.5,9.1,2.5,18.1,8.4,25c6.4,6.4,15.2,9.8,24.2,9.2
			c6.4,0,12.7-1.3,18.5-4c1.8-0.9,2.9-2.8,2.9-4.8v-4.8c0-3-2.5-5.4-5.5-5.4c-0.8,0-1.7,0.2-2.4,0.6c-4.2,2.2-8.8,3.3-13.6,3.3
			c-4.7,0.5-9.5-1.2-12.8-4.6c-3.2-4.3-4.7-9.7-4.3-15v-68.3h31.6c4,0,7.3-3.2,7.3-7.2c0,0,0,0,0,0v-0.1l0,0c0.1-4-3-7.4-7-7.5
			L451.2,351.8z"/>
		<path class="st8" d="M530.3,349.3c-6.1,0-12.2,1.3-17.9,3.7c-5.2,2.3-10,5.4-14.1,9.3c-2,1.9-3.8,3.9-5.4,6.1v-9
			c0-4.2-3.4-7.7-7.7-7.7l0,0l0,0c-4.2,0-7.7,3.4-7.7,7.7l0,0l0,0v100.8c0,4.2,3.4,7.7,7.7,7.7l0,0l0,0c4.2,0,7.7-3.4,7.7-7.7l0,0
			l0,0V408c0.1-4.9,1-9.8,2.6-14.4c1.8-5.2,4.3-10,7.6-14.4c3.2-4.3,7.2-8,11.8-10.9c4.5-2.7,9.6-4.1,14.8-4h1c3,0,5.4-2.4,5.4-5.4
			v-4.2c-0.1-3-2.5-5.4-5.5-5.3L530.3,349.3z"/>
		<path class="st8" d="M561.9,351.8L561.9,351.8c-4.3,0-7.7,3.5-7.7,7.7v100.8c0,4.2,3.3,7.5,7.5,7.6h0.4c4.2,0,7.5-3.4,7.5-7.6
			V359.5C569.6,355.2,566.2,351.8,561.9,351.8z"/>
		<path class="st8" d="M682.4,364.4c-4.3-5-9.7-8.9-15.7-11.4c-6.7-2.7-13.8-4-21-3.9c-6.4-0.1-12.8,1.1-18.8,3.5
			c-5.1,2.1-9.9,5.1-14,8.8c-1.4,1.2-2.7,2.5-3.9,3.9v-6c0-4.2-3.4-7.7-7.7-7.7l0,0l0,0c-4.2,0-7.7,3.4-7.7,7.7l0,0l0,0v101
			c0,4.2,3.4,7.6,7.6,7.6h0.3c4.2,0,7.6-3.4,7.6-7.6l0,0v-56.1c-0.1-5.4,0.9-10.7,2.8-15.7c1.8-4.7,4.5-9,7.9-12.7
			c3.2-3.6,7.1-6.4,11.5-8.4c4.4-2,9.2-3,14-3c5.2-0.1,10.4,0.9,15.2,2.8c4.2,1.7,7.9,4.3,10.9,7.6c3,3.5,5.1,7.6,6.4,12.1
			c1.6,5.3,2.3,10.8,2.3,16.3v57.3c0,4.1,3.3,7.5,7.5,7.5c0,0,0,0,0,0h0.5c4.1,0,7.4-3.3,7.4-7.5v-57.5c0.1-7.4-1-14.7-3.2-21.7
			C690.3,375,686.9,369.3,682.4,364.4z"/>
		<path class="st8" d="M829.8,386.5c-2.8-7.2-7-13.7-12.3-19.3c-18-17.7-45-22.8-68.3-12.9c-14.3,6.3-25.5,18-31.1,32.6
			c-2.9,7.4-4.3,15.3-4.2,23.3c0,7.9,1.4,15.7,4.2,23c2.8,7.1,7,13.7,12.3,19.2c11.4,11.7,27.1,18.1,43.5,17.9
			c8.5,0.1,16.9-1.6,24.7-4.9c7.2-3.1,13.6-7.6,19-13.2c5.3-5.6,9.4-12.2,12.2-19.3c2.9-7.5,4.3-15.5,4.2-23.5
			C834,401.5,832.6,393.8,829.8,386.5z M774.1,455.3c-6.2,0.1-12.4-1.1-18.1-3.6c-10.7-4.6-19.2-13.3-23.5-24.1
			c-2.2-5.7-3.3-11.8-3.3-18c0-6,1.1-12,3.2-17.6c2.1-5.3,5.2-10.2,9.1-14.4c4-4.1,8.7-7.4,14-9.7c11.6-4.8,24.6-4.8,36.2,0
			c5.4,2.2,10.2,5.5,14.2,9.7c4,4.2,7.1,9,9.3,14.4c4.3,11.5,4.3,24.1,0,35.6c-4.1,10.9-12.4,19.6-23.1,24.1
			C786.5,454.2,780.3,455.4,774.1,455.3L774.1,455.3z"/>
		<circle class="st8" cx="562" cy="327.1" r="8.8"/>
	</g>
</g>
</svg>
